<svg xmlns="http://www.w3.org/2000/svg" preserveAspectRatio="xMidYMid" width="1362" height="1689" viewBox="0 0 1362 1689"><defs><style>.cls-2{fill:#f1a755;stroke:#f1a755;stroke-linejoin:round;stroke-width:2px;opacity:.21;fill-opacity:0}</style></defs><path d="M1236.355 800.28L774.891 923.917 437.068 586.102l123.641-461.453L1022.172 1.012l337.823 337.815-123.64 461.453zM505.036 677.641l39.731 39.731-14.541 54.271-54.273 14.541-39.731-39.731 14.542-54.271 54.272-14.541zm-46.999 168.038l-54.272 14.541-39.731-39.73 14.541-54.271 54.272-14.541 39.731 39.73-14.541 54.271zm-80.986 282.705l-217.121 58.178L.985 1027.618l58.178-217.122 217.122-58.177 158.944 158.944-58.178 217.121zm6.037 22.531l158.945 158.944-58.178 217.122-217.122 58.178-158.944-158.944 58.178-217.122 217.121-58.178zm79.833-304.829l14.542-54.27 54.272-14.541 39.731 39.73-14.541 54.271-54.272 14.541-39.732-39.731zm367.913 167.572l-58.177 217.122-217.122 58.177-158.944-158.944 58.177-217.122 217.122-58.177 158.944 158.944zm-52.14 239.652l158.944 158.945-58.178 217.121-217.121 58.178-158.945-158.944 58.178-217.122 217.122-58.178z" id="path-1" class="cls-2" fill-rule="evenodd"/></svg>