<svg xmlns="http://www.w3.org/2000/svg" preserveAspectRatio="xMidYMid" width="547" height="829" viewBox="0 0 547 829"><defs><style>.cls-2{fill:#f1a755;stroke:#f1a755;stroke-linejoin:round;stroke-width:2px;opacity:.3;fill-opacity:0}</style></defs><path d="M-78.895 63.984l-312.519-312.581 114.39-426.993 426.908-114.413 312.519 312.581-114.39 426.994L-78.895 63.984zm-8.368 409.279l-53.82 200.91-200.861 53.833-147.039-147.076 53.82-200.909 200.86-53.834 147.04 147.076zm217.268-46.098l147.04 147.076-53.821 200.909-200.86 53.833-147.04-147.075 53.821-200.91 200.86-53.833zm168.104-255.974l-50.208 13.456-36.755-36.762 13.453-50.218 50.209-13.456 36.755 36.762-13.454 50.218zM251.219-8.518l36.755 36.762-13.454 50.218-50.208 13.456-36.755-36.762L201.01 4.938l50.209-13.456zM128.855 404.168l-200.86 53.833-147.04-147.076 53.821-200.909 200.86-53.833 147.04 147.075-53.821 200.91zm54.888-345.197l36.755 36.762-13.453 50.219-50.209 13.456-36.755-36.763 13.453-50.218 50.209-13.456zm15.34 152.022l200.861-53.833 147.039 147.076-53.82 200.909-200.86 53.834-147.04-147.076 53.82-200.91z" id="path-1" class="cls-2" fill-rule="evenodd"/></svg>